<?xml version="1.0" encoding="UTF-8"?>
<svg xmlns="http://www.w3.org/2000/svg" viewBox="0 0 380 128" role="img" aria-label="pi + VSCode">
  <style>
    .logo-mark { fill: #000; }
    .link { stroke: #888; }
    @media (prefers-color-scheme: dark) {
      .logo-mark { fill: #fff; }
      .link { stroke: #aaa; }
    }
  </style>

  <!-- pi logo (viewBox 0 0 800 800), scaled 0.12 -> 96px, placed left -->
  <g transform="translate(16,16) scale(0.12)">
    <path class="logo-mark" fill-rule="evenodd" d="
      M165.29 165.29 H517.36 V400 H400 V517.36 H282.65 V634.72 H165.29 Z
      M282.65 282.65 V400 H400 V282.65 Z"/>
    <path class="logo-mark" d="M517.36 400 H634.72 V634.72 H517.36 Z"/>
  </g>

  <!-- bridge / plus between the two marks -->
  <g transform="translate(190,64)" stroke-width="6" stroke-linecap="round">
    <line class="link" x1="-14" y1="0" x2="14" y2="0"/>
    <line class="link" x1="0" y1="-14" x2="0" y2="14"/>
  </g>

  <!-- VS Code logo (viewBox 0 0 32 32), scaled 3 -> 96px, placed right -->
  <g transform="translate(268,16) scale(3)">
    <path d="M29.01,5.03,23.244,2.254a1.742,1.742,0,0,0-1.989.338L2.38,19.8A1.166,1.166,0,0,0,2.3,21.447c.025.027.05.053.077.077l1.541,1.4a1.165,1.165,0,0,0,1.489.066L28.142,5.75A1.158,1.158,0,0,1,30,6.672V6.605A1.748,1.748,0,0,0,29.01,5.03Z" style="fill:#0065a9"/>
    <path d="M29.01,26.97l-5.766,2.777a1.745,1.745,0,0,1-1.989-.338L2.38,12.2A1.166,1.166,0,0,1,2.3,10.553c.025-.027.05-.053.077-.077l1.541-1.4A1.165,1.165,0,0,1,5.41,9.01L28.142,26.25A1.158,1.158,0,0,0,30,25.328V25.4A1.749,1.749,0,0,1,29.01,26.97Z" style="fill:#007acc"/>
    <path d="M23.244,29.747a1.745,1.745,0,0,1-1.989-.338A1.025,1.025,0,0,0,23,28.684V3.316a1.024,1.024,0,0,0-1.749-.724,1.744,1.744,0,0,1,1.989-.339l5.765,2.772A1.748,1.748,0,0,1,30,6.6V25.4a1.748,1.748,0,0,1-.991,1.576Z" style="fill:#1f9cf0"/>
  </g>
</svg>
